<svg xmlns="http://www.w3.org/2000/svg" viewBox="0 0 28.87 28.87"><defs><linearGradient id="linear-gradient" x1="-1.84" y1="30.47" x2="32.16" y2="-3.03" gradientUnits="userSpaceOnUse"><stop offset="0" stop-color="#fed576"/><stop offset=".26" stop-color="#f47133"/><stop offset=".61" stop-color="#bc3081"/><stop offset="1" stop-color="#4c63d2"/></linearGradient><style>.cls-2{fill:#fff}</style></defs><g id="Layer_2" data-name="Layer 2"><g id="Layer_1-2" data-name="Layer 1"><rect width="28.87" height="28.87" rx="6.48" ry="6.48" fill="url(#linear-gradient)"/><g id="_Group_" data-name="&lt;Group&gt;"><path id="_Compound_Path_" data-name="&lt;Compound Path&gt;" class="cls-2" d="M10 5h9c.2.1.5.1.7.2a4.78 4.78 0 013.8 3.3 8 8 0 01.3 1.5v8.8a6.94 6.94 0 01-1.2 3.1 5.51 5.51 0 01-4.5 1.9h-7.5a5.49 5.49 0 01-3.7-1.2A5.51 5.51 0 015 18.14v-7a7.57 7.57 0 01.1-1.5 4.9 4.9 0 013.8-4.3zm-3.1 9.5v3.9a3.42 3.42 0 003.7 3.7q3.9.15 7.8 0c2.3 0 3.6-1.4 3.7-3.7q.15-3.9 0-7.8a3.52 3.52 0 00-3.7-3.7q-3.9-.15-7.8 0a3.42 3.42 0 00-3.7 3.7z" fill="#fff"/><path id="_Compound_Path_2" data-name="&lt;Compound Path&gt;" class="cls-2" d="M9.64 14.54a4.91 4.91 0 014.9-4.9 5 5 0 014.9 4.9 4.91 4.91 0 01-4.9 4.9 5 5 0 01-4.9-4.9zm4.9-3.1a3.05 3.05 0 103 3 3 3 0 00-3-3z" fill="#fff"/><path id="_Path_" data-name="&lt;Path&gt;" class="cls-2" d="M18.34 9.44a1.16 1.16 0 011.2-1.2 1.29 1.29 0 011.2 1.2 1.2 1.2 0 01-2.4 0z" fill="#fff"/></g></g></g></svg>